<svg xmlns="http://www.w3.org/2000/svg" xmlns:xlink="http://www.w3.org/1999/xlink" width="6912" zoomAndPan="magnify" viewBox="0 0 5184 2592.000001" height="3456" preserveAspectRatio="xMidYMid meet" version="1.0"><defs><filter x="0%" y="0%" width="100%" height="100%" id="id1"><feColorMatrix values="0 0 0 0 1 0 0 0 0 1 0 0 0 0 1 0 0 0 1 0" color-interpolation-filters="sRGB"/></filter><g/><mask id="id2"><g filter="url(#id1)"><rect x="-518.4" width="6220.8" fill="#000000" y="-259.2" height="3110.400001" fill-opacity="0.0392"/></g></mask><clipPath id="id3"><path d="M 0 0 L 5172 0 L 5172 2591 L 0 2591 Z M 0 0 " clip-rule="nonzero"/></clipPath><clipPath id="id4"><rect x="0" width="5181" y="0" height="2591"/></clipPath><clipPath id="id5"><path d="M 1 1425 L 1630 1425 L 1630 2591 L 1 2591 Z M 1 1425 " clip-rule="nonzero"/></clipPath><clipPath id="id6"><path d="M 1787 286 L 3679 286 L 3679 2503 L 1787 2503 Z M 1787 286 " clip-rule="nonzero"/></clipPath><clipPath id="id7"><path d="M 1517.457031 737.992188 L 3651.410156 284.273438 L 4030.289062 2066.238281 L 1896.335938 2519.957031 Z M 1517.457031 737.992188 " clip-rule="nonzero"/></clipPath><clipPath id="id8"><path d="M 1517.457031 737.992188 L 3651.410156 284.273438 L 4030.289062 2066.238281 L 1896.335938 2519.957031 Z M 1517.457031 737.992188 " clip-rule="nonzero"/></clipPath><clipPath id="id9"><path d="M 1517.457031 737.992188 L 3651.410156 284.273438 L 4030.289062 2066.238281 L 1896.335938 2519.957031 Z M 1517.457031 737.992188 " clip-rule="nonzero"/></clipPath><clipPath id="id10"><path d="M 3495 108 L 3711 108 L 3711 346 L 3495 346 Z M 3495 108 " clip-rule="nonzero"/></clipPath><clipPath id="id11"><path d="M 3464.558594 334.195312 L 3495.632812 107.65625 L 3722.175781 138.730469 L 3691.097656 365.273438 Z M 3464.558594 334.195312 " clip-rule="nonzero"/></clipPath><clipPath id="id12"><path d="M 3464.558594 334.195312 L 3495.632812 107.65625 L 3722.175781 138.730469 L 3691.097656 365.273438 Z M 3464.558594 334.195312 " clip-rule="nonzero"/></clipPath><mask id="id13"><g filter="url(#id1)"><rect x="-518.4" width="6220.8" fill="#000000" y="-259.2" height="3110.400001" fill-opacity="0.5765"/></g></mask><clipPath id="id14"><path d="M 0.816406 0 L 1479.996094 0 L 1479.996094 1401.847656 L 0.816406 1401.847656 Z M 0.816406 0 " clip-rule="nonzero"/></clipPath><clipPath id="id15"><path d="M 505 0 L 1479.996094 0 L 1479.996094 896 L 505 896 Z M 505 0 " clip-rule="nonzero"/></clipPath><clipPath id="id16"><rect x="0" width="1480" y="0" height="1406"/></clipPath></defs><g mask="url(#id2)"><g transform="matrix(1, 0, 0, 1, 1, -0.000000000000208807)"><g clip-path="url(#id4)"><g clip-path="url(#id3)"><path fill="#f4d800" d="M -41.023438 -168.613281 L -41.023438 128.140625 L 5131.359375 -19.710938 L 5131.359375 -359.761719 Z M -41.023438 569.578125 L -41.023438 785.015625 C 128.996094 806.136719 4696.28125 586.472656 4924.378906 569.578125 C 5152.480469 552.679688 5120.800781 382.652344 4924.378906 382.652344 C 4727.960938 382.652344 -41.023438 569.578125 -41.023438 569.578125 Z M -89.601562 1270.804688 L 16 1472.515625 C 16 1472.515625 1952.742188 1358.460938 2663.441406 1270.804688 C 3374.144531 1183.152344 4477.683594 1148.300781 4749.082031 1103.949219 C 5020.476562 1059.59375 5082.78125 1042.695312 5082.78125 1042.695312 L 5020.476562 849.433594 C 5020.476562 849.433594 2434.285156 1112.394531 1619.039062 1160.976562 C 803.792969 1209.554688 -89.601562 1270.804688 -89.601562 1270.804688 Z M -89.601562 1989.988281 L -41.023438 2165.296875 C -41.023438 2165.296875 2426.894531 2183.25 2961.238281 2165.296875 C 3495.585938 2147.34375 5131.359375 2081.867188 5131.359375 2081.867188 C 5131.359375 2081.867188 5161.984375 2034.34375 5170.433594 1946.691406 C 5178.882812 1859.035156 5131.359375 1850.589844 5131.359375 1850.589844 C 5131.359375 1850.589844 786.894531 1963.585938 462.695312 1963.585938 C 277.894531 1962.53125 94.144531 1972.035156 -89.601562 1989.988281 Z M 32.898438 2673.265625 C 32.898438 2673.265625 -46.304688 2795.769531 471.144531 2760.917969 C 988.59375 2726.070312 5082.78125 2524.359375 5082.78125 2524.359375 L 5130.304688 2383.902344 Z M 32.898438 2673.265625 " fill-opacity="1" fill-rule="nonzero"/></g></g></g></g><g clip-path="url(#id5)"><path fill="#ffff8a" d="M 1503.199219 1908.550781 C 1727.277344 2417.695312 1637.558594 2939.660156 1364.863281 3220.75 C 1092.167969 3501.839844 319.601562 4053.855469 -319.929688 3049.707031 C -959.460938 2045.5625 448.65625 1128.484375 1081.117188 1516.085938 C 1472.261719 1755.632812 1503.199219 1908.550781 1503.199219 1908.550781 Z M 1503.199219 1908.550781 " fill-opacity="1" fill-rule="nonzero"/></g><g clip-path="url(#id6)"><g clip-path="url(#id7)"><g clip-path="url(#id8)"><g clip-path="url(#id9)"><path fill="#ffcc00" d="M 3640.46875 286.601562 C 3635.164062 287.671875 3631.75 292.828125 3632.808594 298.121094 C 3634.0625 304.476562 3635.289062 310.828125 3636.480469 317.210938 C 3637.460938 322.535156 3642.578125 326.039062 3647.898438 325.046875 C 3653.222656 324.066406 3656.730469 318.949219 3655.734375 313.625 C 3654.53125 307.175781 3653.308594 300.71875 3652.003906 294.261719 C 3650.933594 288.957031 3645.761719 285.53125 3640.46875 286.601562 Z M 3657.253906 383.0625 C 3651.902344 383.789062 3648.136719 388.714844 3648.863281 394.078125 C 3649.730469 400.488281 3650.542969 406.910156 3651.304688 413.34375 C 3651.933594 418.714844 3656.808594 422.5625 3662.175781 421.917969 C 3667.546875 421.289062 3671.394531 416.414062 3670.75 411.046875 C 3669.980469 404.503906 3669.15625 397.972656 3668.269531 391.457031 C 3667.542969 386.09375 3662.617188 382.335938 3657.253906 383.0625 Z M 3667.3125 480.460938 C 3661.910156 480.753906 3657.761719 485.375 3658.066406 490.773438 C 3658.417969 497.226562 3658.703125 503.691406 3658.917969 510.144531 C 3659.101562 515.554688 3663.640625 519.777344 3669.039062 519.597656 C 3674.449219 519.414062 3678.6875 514.882812 3678.503906 509.472656 C 3678.273438 502.871094 3677.992188 496.292969 3677.625 489.707031 C 3677.332031 484.304688 3672.714844 480.167969 3667.3125 480.460938 Z M 3668.785156 578.359375 C 3663.375 578.089844 3658.785156 582.265625 3658.527344 587.671875 C 3658.226562 594.113281 3657.839844 600.539062 3657.371094 606.960938 C 3656.960938 612.371094 3661.023438 617.070312 3666.417969 617.453125 C 3671.816406 617.867188 3676.527344 613.800781 3676.910156 608.40625 C 3677.398438 601.804688 3677.785156 595.195312 3678.09375 588.589844 C 3678.351562 583.195312 3674.179688 578.621094 3668.785156 578.359375 Z M 3659.222656 675.761719 C 3653.898438 674.796875 3648.800781 678.335938 3647.835938 683.660156 C 3646.6875 690.003906 3645.460938 696.304688 3644.113281 702.554688 C 3642.976562 707.84375 3646.347656 713.0625 3651.640625 714.199219 C 3656.933594 715.335938 3662.132812 711.96875 3663.273438 706.675781 C 3664.675781 700.167969 3665.9375 693.648438 3667.121094 687.148438 C 3668.085938 681.824219 3664.546875 676.726562 3659.222656 675.761719 Z M 3635.75 770.738281 C 3630.671875 768.921875 3625.070312 771.574219 3623.238281 776.65625 C 3621.078125 782.703125 3618.816406 788.691406 3616.417969 794.609375 C 3614.394531 799.621094 3616.820312 805.328125 3621.835938 807.363281 C 3626.859375 809.386719 3632.5625 806.945312 3634.589844 801.933594 C 3637.089844 795.730469 3639.425781 789.511719 3641.660156 783.28125 C 3643.5 778.183594 3640.84375 772.566406 3635.75 770.738281 Z M 3588.386719 858.917969 C 3585.871094 859.550781 3583.714844 861.152344 3582.378906 863.382812 C 3579.105469 868.867188 3575.6875 874.269531 3572.167969 879.601562 C 3569.195312 884.109375 3570.449219 890.191406 3574.957031 893.164062 C 3579.46875 896.148438 3585.550781 894.898438 3588.523438 890.390625 C 3592.207031 884.816406 3595.753906 879.179688 3599.183594 873.441406 C 3601.949219 868.796875 3600.4375 862.785156 3595.789062 860.007812 C 3593.5625 858.671875 3590.898438 858.289062 3588.386719 858.917969 Z M 3531.691406 936.773438 C 3529.089844 936.871094 3526.640625 938 3524.867188 939.910156 C 3520.523438 944.597656 3516.09375 949.195312 3511.546875 953.695312 C 3507.707031 957.507812 3507.6875 963.71875 3511.5 967.558594 C 3515.320312 971.382812 3521.503906 971.40625 3525.34375 967.59375 C 3530.074219 962.90625 3534.710938 958.113281 3539.234375 953.230469 C 3542.914062 949.261719 3542.675781 943.074219 3538.71875 939.390625 C 3536.8125 937.628906 3534.292969 936.6875 3531.691406 936.773438 Z M 3453.0625 1003.46875 C 3447.890625 1007.242188 3442.644531 1010.9375 3437.328125 1014.550781 C 3432.855469 1017.585938 3431.695312 1023.671875 3434.730469 1028.144531 C 3437.761719 1032.617188 3443.847656 1033.792969 3448.324219 1030.757812 C 3453.820312 1027.023438 3459.261719 1023.21875 3464.621094 1019.292969 C 3468.992188 1016.097656 3469.9375 1009.964844 3466.730469 1005.597656 C 3463.554688 1001.234375 3457.429688 1000.273438 3453.0625 1003.46875 Z M 2513.828125 1229.65625 C 2507.429688 1231.101562 2501.035156 1232.570312 2494.648438 1234.066406 C 2489.382812 1235.324219 2486.132812 1240.597656 2487.375 1245.863281 C 2488.628906 1251.117188 2493.890625 1254.371094 2499.144531 1253.144531 C 2505.476562 1251.644531 2511.792969 1250.191406 2518.125 1248.777344 C 2523.40625 1247.585938 2526.71875 1242.339844 2525.527344 1237.0625 C 2524.351562 1231.792969 2519.109375 1228.480469 2513.828125 1229.65625 Z M 2590.894531 1213.824219 C 2585.578125 1214.828125 2582.085938 1219.960938 2583.09375 1225.277344 C 2584.113281 1230.59375 2589.242188 1234.085938 2594.558594 1233.0625 C 2600.898438 1231.867188 2607.277344 1230.71875 2613.6875 1229.589844 C 2619.007812 1228.652344 2622.578125 1223.574219 2621.636719 1218.242188 C 2620.695312 1212.910156 2615.621094 1209.351562 2610.296875 1210.277344 C 2603.847656 1211.414062 2597.367188 1212.597656 2590.894531 1213.824219 Z M 2418.394531 1253.730469 C 2412.078125 1255.5 2405.757812 1257.296875 2399.449219 1259.164062 C 2394.269531 1260.691406 2391.300781 1266.140625 2392.828125 1271.320312 C 2394.359375 1276.5 2399.792969 1279.46875 2404.972656 1277.953125 C 2411.191406 1276.121094 2417.421875 1274.339844 2423.6875 1272.582031 C 2428.894531 1271.128906 2431.925781 1265.710938 2430.457031 1260.503906 C 2428.996094 1255.308594 2423.605469 1252.277344 2418.394531 1253.730469 Z M 2687.953125 1197.78125 C 2682.59375 1198.535156 2678.863281 1203.507812 2679.628906 1208.863281 C 2680.382812 1214.222656 2685.355469 1217.941406 2690.710938 1217.175781 L 2703.3125 1215.378906 L 2710.054688 1214.453125 C 2715.417969 1213.714844 2719.15625 1208.78125 2718.429688 1203.429688 C 2717.691406 1198.066406 2712.757812 1194.328125 2707.394531 1195.054688 L 2700.597656 1195.988281 Z M 3370.921875 1053.726562 C 3365.199219 1056.65625 3359.433594 1059.523438 3353.621094 1062.292969 C 3348.75 1064.625 3346.679688 1070.457031 3349 1075.332031 C 3351.332031 1080.21875 3357.179688 1082.273438 3362.054688 1079.953125 C 3368.03125 1077.109375 3373.972656 1074.175781 3379.867188 1071.144531 C 3384.679688 1068.671875 3386.574219 1062.777344 3384.101562 1057.960938 C 3381.628906 1053.148438 3375.734375 1051.257812 3370.921875 1053.726562 Z M 2324.382812 1283.195312 C 2318.179688 1285.355469 2311.96875 1287.558594 2305.785156 1289.8125 C 2300.714844 1291.664062 2298.09375 1297.300781 2299.957031 1302.378906 C 2301.808594 1307.449219 2307.445312 1310.074219 2312.523438 1308.207031 C 2318.605469 1305.988281 2324.714844 1303.820312 2330.828125 1301.695312 C 2335.929688 1299.921875 2338.632812 1294.335938 2336.855469 1289.222656 C 2335.082031 1284.121094 2329.496094 1281.417969 2324.382812 1283.195312 Z M 2785.445312 1185.539062 C 2780.0625 1186.117188 2776.179688 1190.945312 2776.757812 1196.324219 C 2777.324219 1201.710938 2782.148438 1205.597656 2787.53125 1205.019531 L 2794.707031 1204.238281 L 2806.96875 1202.996094 C 2812.355469 1202.445312 2816.273438 1197.636719 2815.722656 1192.25 C 2815.167969 1186.863281 2810.363281 1182.945312 2804.976562 1183.496094 L 2792.660156 1184.761719 Z M 2882.785156 1175.230469 C 2877.40625 1175.824219 2873.539062 1180.675781 2874.148438 1186.0625 C 2874.75 1191.425781 2879.601562 1195.292969 2884.976562 1194.6875 C 2891.484375 1193.953125 2897.984375 1193.191406 2904.496094 1192.414062 C 2909.867188 1191.769531 2913.699219 1186.898438 2913.050781 1181.515625 C 2912.410156 1176.164062 2907.539062 1172.328125 2902.167969 1172.957031 C 2895.710938 1173.738281 2889.25 1174.492188 2882.785156 1175.230469 Z M 3282.25 1092.269531 C 3276.195312 1094.496094 3270.105469 1096.671875 3264 1098.773438 C 3258.878906 1100.523438 3256.160156 1106.097656 3257.925781 1111.210938 C 3259.675781 1116.332031 3265.261719 1119.050781 3270.378906 1117.285156 C 3276.609375 1115.132812 3282.832031 1112.925781 3289.027344 1110.644531 C 3294.105469 1108.761719 3296.6875 1103.136719 3294.824219 1098.070312 C 3292.945312 1092.992188 3287.3125 1090.394531 3282.25 1092.269531 Z M 2232.484375 1318.949219 C 2226.429688 1321.558594 2220.40625 1324.246094 2214.414062 1326.957031 C 2209.496094 1329.1875 2207.316406 1334.976562 2209.539062 1339.902344 C 2211.757812 1344.824219 2217.5625 1347.011719 2222.484375 1344.792969 C 2228.386719 1342.117188 2234.3125 1339.488281 2240.253906 1336.929688 C 2245.21875 1334.785156 2247.496094 1329.015625 2245.351562 1324.050781 C 2243.203125 1319.082031 2237.449219 1316.800781 2232.484375 1318.949219 Z M 2979.617188 1162.867188 C 2974.261719 1163.644531 2970.558594 1168.613281 2971.335938 1173.953125 C 2972.101562 1179.308594 2977.058594 1183.03125 2982.417969 1182.265625 C 2988.867188 1181.332031 2995.359375 1180.394531 3001.878906 1179.394531 C 3007.210938 1178.578125 3010.882812 1173.589844 3010.0625 1168.246094 C 3009.257812 1162.898438 3004.269531 1159.226562 2998.925781 1160.042969 C 2992.523438 1161.019531 2986.085938 1161.945312 2979.617188 1162.867188 Z M 3189.683594 1121.390625 C 3183.4375 1123.089844 3177.1875 1124.722656 3170.941406 1126.285156 C 3165.6875 1127.597656 3162.496094 1132.910156 3163.808594 1138.164062 C 3165.117188 1143.40625 3170.417969 1146.609375 3175.671875 1145.300781 C 3182.09375 1143.699219 3188.46875 1142.027344 3194.824219 1140.304688 C 3200.054688 1138.886719 3203.128906 1133.5 3201.71875 1128.28125 C 3200.304688 1123.0625 3194.914062 1119.972656 3189.683594 1121.390625 Z M 3075.871094 1147.066406 C 3070.546875 1148.046875 3067.035156 1153.152344 3068.03125 1158.472656 C 3069.007812 1163.785156 3074.117188 1167.304688 3079.425781 1166.328125 C 3085.933594 1165.125 3092.378906 1163.851562 3098.796875 1162.570312 C 3104.089844 1161.5 3107.519531 1156.355469 3106.476562 1151.058594 C 3105.417969 1145.75 3100.269531 1142.304688 3094.960938 1143.351562 C 3088.582031 1144.625 3082.210938 1145.882812 3075.871094 1147.066406 Z M 2143.625 1362.070312 C 2137.8125 1365.222656 2132.0625 1368.417969 2126.328125 1371.695312 C 2121.625 1374.363281 2119.984375 1380.339844 2122.65625 1385.042969 C 2125.339844 1389.757812 2131.328125 1391.382812 2136.027344 1388.699219 C 2141.636719 1385.492188 2147.277344 1382.363281 2152.957031 1379.292969 C 2157.707031 1376.707031 2159.464844 1370.773438 2156.898438 1366.023438 C 2154.3125 1361.257812 2148.378906 1359.5 2143.625 1362.070312 Z M 2059.285156 1413.792969 C 2053.835938 1417.558594 2048.441406 1421.382812 2043.09375 1425.292969 C 2038.738281 1428.496094 2037.789062 1434.617188 2040.980469 1438.988281 C 2044.183594 1443.34375 2050.304688 1444.289062 2054.675781 1441.097656 C 2059.867188 1437.289062 2065.105469 1433.566406 2070.398438 1429.917969 C 2074.863281 1426.84375 2075.980469 1420.730469 2072.894531 1416.277344 C 2069.828125 1411.839844 2063.742188 1410.734375 2059.285156 1413.792969 Z M 1988.597656 1472.808594 C 1986.007812 1472.683594 1983.46875 1473.59375 1981.550781 1475.339844 C 1976.632812 1479.796875 1971.78125 1484.304688 1967.011719 1488.917969 C 1963.105469 1492.675781 1963.003906 1498.878906 1966.769531 1502.769531 C 1970.519531 1506.660156 1976.710938 1506.765625 1980.601562 1503.011719 C 1985.230469 1498.554688 1989.941406 1494.171875 1994.703125 1489.847656 C 1998.707031 1486.222656 1999.007812 1480.03125 1995.378906 1476.015625 C 1993.628906 1474.082031 1991.191406 1472.933594 1988.597656 1472.808594 Z M 1913.261719 1547.535156 C 1909.089844 1552.699219 1905.015625 1557.9375 1901.042969 1563.253906 C 1897.78125 1567.578125 1898.660156 1573.722656 1902.992188 1576.96875 C 1907.328125 1580.226562 1913.472656 1579.347656 1916.71875 1575.015625 C 1920.566406 1569.878906 1924.496094 1564.808594 1928.523438 1559.8125 C 1931.90625 1555.601562 1931.246094 1549.4375 1927.035156 1546.054688 C 1922.820312 1542.644531 1916.65625 1543.308594 1913.261719 1547.535156 Z M 1863.664062 1625.46875 C 1861.167969 1626.191406 1859.054688 1627.867188 1857.800781 1630.136719 C 1854.582031 1635.96875 1851.464844 1641.871094 1848.480469 1647.820312 C 1846.070312 1652.648438 1848.011719 1658.53125 1852.84375 1660.953125 C 1857.679688 1663.386719 1863.570312 1661.429688 1865.992188 1656.597656 C 1868.855469 1650.867188 1871.84375 1645.195312 1874.933594 1639.613281 C 1877.542969 1634.878906 1875.835938 1628.921875 1871.113281 1626.3125 C 1868.828125 1625.046875 1866.144531 1624.746094 1863.648438 1625.46875 Z M 1830.3125 1715.191406 C 1825.1875 1713.46875 1819.617188 1716.222656 1817.898438 1721.363281 C 1815.777344 1727.679688 1813.800781 1734.019531 1811.921875 1740.378906 C 1810.394531 1745.574219 1813.355469 1751.015625 1818.539062 1752.546875 C 1823.722656 1754.082031 1829.175781 1751.113281 1830.707031 1745.933594 C 1832.515625 1739.765625 1834.433594 1733.660156 1836.46875 1727.597656 C 1838.191406 1722.472656 1835.425781 1716.921875 1830.3125 1715.191406 Z M 1805.90625 1809.929688 C 1800.558594 1809.121094 1795.558594 1812.789062 1794.75 1818.136719 C 1793.742188 1824.683594 1792.851562 1831.273438 1792.082031 1837.894531 C 1791.472656 1843.269531 1795.316406 1848.121094 1800.679688 1848.75 C 1806.066406 1849.367188 1810.933594 1845.519531 1811.542969 1840.148438 C 1812.277344 1833.796875 1813.15625 1827.425781 1814.125 1821.066406 C 1814.917969 1815.726562 1811.25 1810.738281 1805.90625 1809.929688 Z M 1797.308594 1907.386719 C 1791.90625 1907.347656 1787.480469 1911.710938 1787.457031 1917.125 C 1787.417969 1923.8125 1787.554688 1930.433594 1787.710938 1936.996094 L 1787.726562 1937.074219 C 1787.898438 1942.488281 1792.429688 1946.738281 1797.84375 1946.570312 C 1803.242188 1946.386719 1807.480469 1941.855469 1807.3125 1936.457031 L 1807.328125 1936.535156 C 1807.164062 1930.046875 1807.035156 1923.613281 1807.074219 1917.246094 C 1807.109375 1911.828125 1802.75 1907.417969 1797.335938 1907.382812 Z M 1802.324219 2005.140625 C 1796.957031 2005.796875 1793.140625 2010.691406 1793.8125 2016.054688 C 1794.613281 2022.605469 1795.511719 2029.175781 1796.511719 2035.75 C 1797.316406 2041.097656 1802.320312 2044.765625 1807.664062 2043.949219 C 1813.027344 2043.152344 1816.707031 2038.132812 1815.882812 2032.777344 C 1814.910156 2026.445312 1814.0625 2020.054688 1813.265625 2013.644531 C 1812.589844 2008.269531 1807.683594 2004.46875 1802.324219 2005.140625 Z M 1818.675781 2101.652344 C 1813.398438 2102.84375 1810.097656 2108.085938 1811.289062 2113.367188 C 1812.769531 2119.867188 1814.335938 2126.265625 1815.917969 2132.609375 C 1817.210938 2137.851562 1822.519531 2141.070312 1827.773438 2139.761719 C 1833.03125 2138.464844 1836.230469 2133.144531 1834.933594 2127.890625 C 1833.367188 2121.558594 1831.8125 2115.28125 1830.390625 2109.054688 C 1829.210938 2103.761719 1823.953125 2100.449219 1818.675781 2101.652344 Z M 1844.027344 2196.226562 C 1838.871094 2197.863281 1836.011719 2203.355469 1837.644531 2208.511719 C 1839.644531 2214.804688 1841.710938 2221.085938 1843.824219 2227.328125 C 1845.574219 2232.449219 1851.136719 2235.183594 1856.261719 2233.445312 C 1861.378906 2231.695312 1864.113281 2226.132812 1862.375 2221.011719 C 1860.289062 2214.886719 1858.261719 2208.738281 1856.308594 2202.585938 C 1854.660156 2197.441406 1849.171875 2194.59375 1844.027344 2196.226562 Z M 1876.589844 2288.5625 C 1871.550781 2290.558594 1869.085938 2296.242188 1871.066406 2301.273438 C 1873.488281 2307.394531 1875.96875 2313.488281 1878.507812 2319.585938 C 1880.585938 2324.566406 1886.304688 2326.9375 1891.300781 2324.867188 C 1896.296875 2322.785156 1898.652344 2317.054688 1896.582031 2312.058594 C 1894.085938 2306.105469 1891.679688 2300.105469 1889.292969 2294.070312 C 1887.300781 2289.046875 1881.617188 2286.585938 1876.589844 2288.5625 Z M 1914.960938 2378.65625 C 1910.050781 2380.929688 1907.910156 2386.753906 1910.179688 2391.664062 C 1912.941406 2397.644531 1915.765625 2403.585938 1918.609375 2409.507812 C 1920.957031 2414.375 1926.800781 2416.429688 1931.683594 2414.082031 C 1936.546875 2411.722656 1938.59375 2405.890625 1936.261719 2401.019531 C 1933.441406 2395.164062 1930.679688 2389.308594 1927.96875 2383.4375 C 1925.695312 2378.527344 1919.875 2376.386719 1914.960938 2378.65625 Z M 1958.027344 2466.609375 C 1953.238281 2469.128906 1951.40625 2475.039062 1953.914062 2479.832031 L 1956.839844 2485.417969 L 1963.121094 2497.191406 C 1965.664062 2501.949219 1971.582031 2503.753906 1976.355469 2501.222656 C 1981.125 2498.675781 1982.929688 2492.757812 1980.398438 2487.984375 L 1974.152344 2476.261719 L 1971.25 2470.722656 C 1968.742188 2465.929688 1962.816406 2464.085938 1958.027344 2466.609375 Z M 1958.027344 2466.609375 " fill-opacity="1" fill-rule="nonzero"/></g></g></g></g><g clip-path="url(#id10)"><g clip-path="url(#id11)"><g clip-path="url(#id12)"><path fill="#f4d800" d="M 3496.355469 109.628906 C 3496.171875 109.792969 3496.039062 109.988281 3495.878906 110.179688 C 3495.507812 110.722656 3495.269531 111.304688 3495.183594 111.910156 C 3495.132812 112.277344 3495.117188 112.597656 3495.152344 112.921875 C 3495.148438 112.949219 3495.152344 112.921875 3495.152344 112.921875 C 3495.15625 113.085938 3495.183594 113.277344 3495.242188 113.445312 L 3546.195312 342.714844 C 3546.539062 344.316406 3547.816406 345.535156 3549.414062 345.835938 C 3551.007812 346.132812 3552.65625 345.449219 3553.5625 344.101562 L 3610.421875 259.09375 L 3707.59375 227.230469 C 3709.082031 226.738281 3710.144531 225.460938 3710.355469 223.910156 C 3710.363281 223.855469 3710.375 223.777344 3710.382812 223.726562 C 3710.523438 222.109375 3709.691406 220.546875 3708.242188 219.785156 L 3501.140625 108.945312 C 3501.117188 108.917969 3501.140625 108.945312 3501.140625 108.945312 C 3500.363281 108.546875 3499.5 108.398438 3498.652344 108.523438 C 3498.402344 108.570312 3498.15625 108.617188 3497.902344 108.71875 C 3497.316406 108.878906 3496.789062 109.207031 3496.355469 109.628906 Z M 3552.085938 331.621094 L 3507.25 129.863281 L 3602.804688 255.800781 Z M 3695.972656 222.445312 L 3609.296875 250.871094 L 3513.746094 124.9375 Z M 3695.972656 222.445312 " fill-opacity="1" fill-rule="nonzero"/></g></g></g><g mask="url(#id13)"><g transform="matrix(1, 0, 0, 1, 3703, -0.000000000000208807)"><g clip-path="url(#id16)"><g clip-path="url(#id14)"><path fill="#ffde59" d="M 1476.480469 1401.027344 C 1476.480469 1401.027344 1119.726562 1384.355469 945.667969 1130.558594 C 781.3125 890.929688 911.425781 534.851562 514.179688 439 C 116.933594 343.148438 0.578125 -81.398438 0.578125 -81.398438 L 1479.875 -81.398438 Z M 1476.480469 1401.027344 " fill-opacity="1" fill-rule="nonzero"/></g><g clip-path="url(#id15)"><path fill="#ffff8a" d="M 1477.613281 895.097656 C 1477.613281 895.097656 1242.695312 884.082031 1128.003906 716.910156 C 1019.746094 559.082031 1105.4375 324.511719 843.78125 261.40625 C 582.125 198.296875 505.488281 -81.398438 505.488281 -81.398438 L 1479.875 -81.398438 Z M 1477.613281 895.097656 " fill-opacity="1" fill-rule="nonzero"/></g></g></g></g><g fill="#000000" fill-opacity="1"><g transform="translate(957.684262, 1386.381262)"><g><path d="M 130.28125 -206.992188 L 156.460938 -154.636719 L 162.550781 -154.636719 L 162.550781 -213.078125 L 73.664062 -213.078125 C 36.527344 -213.078125 12.175781 -188.726562 12.175781 -153.417969 C 12.175781 -118.714844 28.613281 -98.625 60.269531 -91.320312 L 96.191406 -82.796875 C 120.542969 -77.316406 132.71875 -65.75 132.71875 -42.617188 C 132.71875 -18.265625 115.671875 -6.089844 93.144531 -6.089844 L 52.355469 -6.089844 L 26.179688 -58.445312 L 20.089844 -58.445312 L 20.089844 0 L 116.28125 0 C 153.417969 0 177.769531 -24.351562 177.769531 -59.664062 C 177.769531 -94.363281 161.941406 -114.453125 130.28125 -121.757812 L 93.753906 -130.28125 C 69.402344 -135.761719 57.226562 -147.328125 57.226562 -170.464844 C 57.226562 -194.816406 74.882812 -206.992188 97.40625 -206.992188 Z M 130.28125 -206.992188 "/></g></g></g><g fill="#000000" fill-opacity="1"><g transform="translate(1145.193859, 1386.381262)"><g><path d="M 10.957031 -152.808594 L 37.136719 -206.992188 L 66.359375 -206.992188 L 66.359375 -8.21875 L 48.703125 -6.089844 L 48.703125 0 L 129.675781 0 L 129.675781 -6.089844 L 112.019531 -8.21875 L 112.019531 -206.992188 L 140.632812 -206.992188 L 167.417969 -152.808594 L 173.507812 -152.808594 L 173.507812 -213.078125 L 4.871094 -213.078125 L 4.871094 -152.808594 Z M 10.957031 -152.808594 "/></g></g></g><g fill="#000000" fill-opacity="1"><g transform="translate(1322.353884, 1386.381262)"><g><path d="M 91.320312 -213.078125 L 84.621094 -213.078125 L 23.132812 -7.609375 L 4.871094 -6.089844 L 4.871094 0 L 46.878906 0 L 46.878906 -6.089844 L 29.832031 -7.609375 L 51.445312 -80.363281 L 124.804688 -80.363281 L 146.113281 -7.914062 L 130.28125 -6.089844 L 130.28125 0 L 213.6875 0 L 213.6875 -6.089844 L 194.816406 -8.21875 L 133.328125 -213.078125 Z M 88.882812 -203.339844 L 89.492188 -200.292969 L 122.976562 -86.449219 L 53.269531 -86.449219 L 87.667969 -200.292969 Z M 88.882812 -203.339844 "/></g></g></g><g fill="#000000" fill-opacity="1"><g transform="translate(1539.694525, 1386.381262)"><g><path d="M 4.871094 -206.992188 L 22.527344 -204.859375 L 22.527344 -8.21875 L 4.871094 -6.089844 L 4.871094 0 L 85.839844 0 L 85.839844 -6.089844 L 67.578125 -8.21875 L 67.578125 -80.363281 L 105.019531 -80.363281 L 143.675781 -8.21875 L 127.238281 -6.089844 L 127.238281 0 L 213.078125 0 L 213.078125 -6.089844 L 192.988281 -8.21875 L 151.589844 -85.839844 C 174.421875 -94.667969 188.117188 -114.453125 188.117188 -146.71875 C 188.117188 -192.988281 160.722656 -213.078125 118.105469 -213.078125 L 4.871094 -213.078125 Z M 67.578125 -206.992188 L 90.710938 -206.992188 C 121.152344 -206.992188 143.066406 -192.378906 143.066406 -146.71875 C 143.066406 -101.058594 119.324219 -86.449219 90.710938 -86.449219 L 67.578125 -86.449219 Z M 67.578125 -206.992188 "/></g></g></g><g fill="#000000" fill-opacity="1"><g transform="translate(1755.817628, 1386.381262)"><g/></g></g><g fill="#000000" fill-opacity="1"><g transform="translate(1835.570069, 1386.381262)"><g><path d="M 72.144531 -205.164062 L 89.492188 -206.992188 L 89.492188 -213.078125 L 4.871094 -213.078125 L 4.871094 -206.992188 L 23.4375 -204.859375 L 85.230469 -60.878906 L 85.230469 -8.21875 L 67.578125 -6.089844 L 67.578125 0 L 148.546875 0 L 148.546875 -6.089844 L 130.28125 -8.21875 L 130.28125 -60.878906 L 192.988281 -205.46875 L 211.253906 -206.992188 L 211.253906 -213.078125 L 169.246094 -213.078125 L 169.246094 -206.992188 L 186.292969 -205.46875 L 129.066406 -73.054688 Z M 72.144531 -205.164062 "/></g></g></g><g fill="#000000" fill-opacity="1"><g transform="translate(2051.084287, 1386.381262)"><g><path d="M 118.105469 -216.125 C 52.355469 -216.125 12.175781 -174.726562 12.175781 -106.539062 C 12.175781 -38.355469 52.355469 3.042969 118.105469 3.042969 C 183.855469 3.042969 224.648438 -38.355469 224.648438 -106.539062 C 224.648438 -174.726562 183.855469 -216.125 118.105469 -216.125 Z M 118.105469 -210.035156 C 152.808594 -210.035156 172.289062 -182.640625 172.289062 -106.539062 C 172.289062 -30.441406 152.808594 -3.042969 118.105469 -3.042969 C 83.40625 -3.042969 64.53125 -31.046875 64.53125 -106.539062 C 64.53125 -182.640625 83.40625 -210.035156 118.105469 -210.035156 Z M 118.105469 -210.035156 "/></g></g></g><g fill="#000000" fill-opacity="1"><g transform="translate(2287.297594, 1386.381262)"><g><path d="M 4.871094 -206.992188 L 22.527344 -204.859375 L 22.527344 -60.878906 C 22.527344 -27.394531 49.921875 0 83.40625 0 L 221.601562 0 L 221.601562 -6.089844 L 203.339844 -8.21875 L 203.339844 -204.859375 L 221.601562 -206.992188 L 221.601562 -213.078125 L 140.023438 -213.078125 L 140.023438 -206.992188 L 157.679688 -204.859375 L 157.679688 -6.089844 L 116.28125 -6.089844 C 88.882812 -6.089844 67.578125 -27.394531 67.578125 -54.792969 L 67.578125 -213.078125 L 4.871094 -213.078125 Z M 4.871094 -206.992188 "/></g></g></g><g fill="#000000" fill-opacity="1"><g transform="translate(2512.552586, 1386.381262)"><g><path d="M 4.871094 -206.992188 L 22.527344 -204.859375 L 22.527344 -8.21875 L 4.871094 -6.089844 L 4.871094 0 L 85.839844 0 L 85.839844 -6.089844 L 67.578125 -8.21875 L 67.578125 -80.363281 L 105.019531 -80.363281 L 143.675781 -8.21875 L 127.238281 -6.089844 L 127.238281 0 L 213.078125 0 L 213.078125 -6.089844 L 192.988281 -8.21875 L 151.589844 -85.839844 C 174.421875 -94.667969 188.117188 -114.453125 188.117188 -146.71875 C 188.117188 -192.988281 160.722656 -213.078125 118.105469 -213.078125 L 4.871094 -213.078125 Z M 67.578125 -206.992188 L 90.710938 -206.992188 C 121.152344 -206.992188 143.066406 -192.378906 143.066406 -146.71875 C 143.066406 -101.058594 119.324219 -86.449219 90.710938 -86.449219 L 67.578125 -86.449219 Z M 67.578125 -206.992188 "/></g></g></g><g fill="#000000" fill-opacity="1"><g transform="translate(2728.675631, 1386.381262)"><g/></g></g><g fill="#000000" fill-opacity="1"><g transform="translate(2808.428072, 1386.381262)"><g><path d="M 130.28125 -206.992188 L 156.460938 -154.636719 L 162.550781 -154.636719 L 162.550781 -213.078125 L 73.664062 -213.078125 C 36.527344 -213.078125 12.175781 -188.726562 12.175781 -153.417969 C 12.175781 -118.714844 28.613281 -98.625 60.269531 -91.320312 L 96.191406 -82.796875 C 120.542969 -77.316406 132.71875 -65.75 132.71875 -42.617188 C 132.71875 -18.265625 115.671875 -6.089844 93.144531 -6.089844 L 52.355469 -6.089844 L 26.179688 -58.445312 L 20.089844 -58.445312 L 20.089844 0 L 116.28125 0 C 153.417969 0 177.769531 -24.351562 177.769531 -59.664062 C 177.769531 -94.363281 161.941406 -114.453125 130.28125 -121.757812 L 93.753906 -130.28125 C 69.402344 -135.761719 57.226562 -147.328125 57.226562 -170.464844 C 57.226562 -194.816406 74.882812 -206.992188 97.40625 -206.992188 Z M 130.28125 -206.992188 "/></g></g></g><g fill="#000000" fill-opacity="1"><g transform="translate(2995.937622, 1386.381262)"><g><path d="M 10.957031 -152.808594 L 37.136719 -206.992188 L 66.359375 -206.992188 L 66.359375 -8.21875 L 48.703125 -6.089844 L 48.703125 0 L 129.675781 0 L 129.675781 -6.089844 L 112.019531 -8.21875 L 112.019531 -206.992188 L 140.632812 -206.992188 L 167.417969 -152.808594 L 173.507812 -152.808594 L 173.507812 -213.078125 L 4.871094 -213.078125 L 4.871094 -152.808594 Z M 10.957031 -152.808594 "/></g></g></g><g fill="#000000" fill-opacity="1"><g transform="translate(3173.097685, 1386.381262)"><g><path d="M 91.320312 -213.078125 L 84.621094 -213.078125 L 23.132812 -7.609375 L 4.871094 -6.089844 L 4.871094 0 L 46.878906 0 L 46.878906 -6.089844 L 29.832031 -7.609375 L 51.445312 -80.363281 L 124.804688 -80.363281 L 146.113281 -7.914062 L 130.28125 -6.089844 L 130.28125 0 L 213.6875 0 L 213.6875 -6.089844 L 194.816406 -8.21875 L 133.328125 -213.078125 Z M 88.882812 -203.339844 L 89.492188 -200.292969 L 122.976562 -86.449219 L 53.269531 -86.449219 L 87.667969 -200.292969 Z M 88.882812 -203.339844 "/></g></g></g><g fill="#000000" fill-opacity="1"><g transform="translate(3390.43827, 1386.381262)"><g><path d="M 4.871094 -206.992188 L 22.527344 -204.859375 L 22.527344 -8.21875 L 4.871094 -6.089844 L 4.871094 0 L 85.839844 0 L 85.839844 -6.089844 L 67.578125 -8.21875 L 67.578125 -80.363281 L 105.019531 -80.363281 L 143.675781 -8.21875 L 127.238281 -6.089844 L 127.238281 0 L 213.078125 0 L 213.078125 -6.089844 L 192.988281 -8.21875 L 151.589844 -85.839844 C 174.421875 -94.667969 188.117188 -114.453125 188.117188 -146.71875 C 188.117188 -192.988281 160.722656 -213.078125 118.105469 -213.078125 L 4.871094 -213.078125 Z M 67.578125 -206.992188 L 90.710938 -206.992188 C 121.152344 -206.992188 143.066406 -192.378906 143.066406 -146.71875 C 143.066406 -101.058594 119.324219 -86.449219 90.710938 -86.449219 L 67.578125 -86.449219 Z M 67.578125 -206.992188 "/></g></g></g><g fill="#000000" fill-opacity="1"><g transform="translate(3606.561429, 1386.381262)"><g><path d="M 10.957031 -152.808594 L 37.136719 -206.992188 L 66.359375 -206.992188 L 66.359375 -8.21875 L 48.703125 -6.089844 L 48.703125 0 L 129.675781 0 L 129.675781 -6.089844 L 112.019531 -8.21875 L 112.019531 -206.992188 L 140.632812 -206.992188 L 167.417969 -152.808594 L 173.507812 -152.808594 L 173.507812 -213.078125 L 4.871094 -213.078125 L 4.871094 -152.808594 Z M 10.957031 -152.808594 "/></g></g></g><g fill="#000000" fill-opacity="1"><g transform="translate(3783.721492, 1386.381262)"><g><path d="M 4.871094 -206.992188 L 22.527344 -204.859375 L 22.527344 -60.878906 C 22.527344 -27.394531 49.921875 0 83.40625 0 L 221.601562 0 L 221.601562 -6.089844 L 203.339844 -8.21875 L 203.339844 -204.859375 L 221.601562 -206.992188 L 221.601562 -213.078125 L 140.023438 -213.078125 L 140.023438 -206.992188 L 157.679688 -204.859375 L 157.679688 -6.089844 L 116.28125 -6.089844 C 88.882812 -6.089844 67.578125 -27.394531 67.578125 -54.792969 L 67.578125 -213.078125 L 4.871094 -213.078125 Z M 4.871094 -206.992188 "/></g></g></g><g fill="#000000" fill-opacity="1"><g transform="translate(4008.976484, 1386.381262)"><g><path d="M 4.871094 -206.992188 L 22.527344 -204.859375 L 22.527344 -8.21875 L 4.871094 -6.089844 L 4.871094 0 L 85.839844 0 L 85.839844 -6.089844 L 67.578125 -8.21875 L 67.578125 -65.75 L 133.328125 -65.75 C 177.160156 -65.75 205.773438 -87.667969 205.773438 -139.414062 C 205.773438 -191.164062 177.160156 -213.078125 133.328125 -213.078125 L 4.871094 -213.078125 Z M 67.578125 -206.992188 L 105.929688 -206.992188 C 137.589844 -206.992188 160.722656 -191.164062 160.722656 -139.414062 C 160.722656 -87.667969 135.761719 -71.839844 105.929688 -71.839844 L 67.578125 -71.839844 Z M 67.578125 -206.992188 "/></g></g></g></svg>